<?xml version="1.0" encoding="utf-8"?>
<!-- Generator: Adobe Illustrator 16.0.2, SVG Export Plug-In . SVG Version: 6.00 Build 0)  -->
<!DOCTYPE svg PUBLIC "-//W3C//DTD SVG 1.1//EN" "http://www.w3.org/Graphics/SVG/1.1/DTD/svg11.dtd">
<svg version="1.1" id="Layer_1" xmlns="http://www.w3.org/2000/svg" xmlns:xlink="http://www.w3.org/1999/xlink" x="0px" y="0px"
	 width="451.395px" height="64.082px" viewBox="0 0 451.395 64.082" enable-background="new 0 0 451.395 64.082"
	 xml:space="preserve">
<polygon fill="#C6C5C4" points="33.667,55.479 14.743,55.479 32.517,-0.003 51.441,-0.003 "/>
<polygon fill="#FFFFFF" points="71.972,64.082 53.048,64.082 32.519,0 51.443,0 "/>
<polygon fill="#FFFFFF" points="33.666,55.478 14.742,55.478 0,9.458 18.924,9.458 "/>
<g>
	<path fill="#FFFFFF" d="M82.387,11.607h8.083v42.87h-8.083V11.607z"/>
	<path fill="#FFFFFF" d="M105.498,28.971h0.479c0.917-1.476,2.155-2.644,3.712-3.502s3.333-1.288,5.329-1.288
		c1.835,0,3.452,0.3,4.85,0.898c1.397,0.599,2.545,1.447,3.443,2.545s1.576,2.415,2.036,3.951c0.458,1.537,0.688,3.244,0.688,5.119
		v17.783h-7.843V37.652c0-2.115-0.47-3.682-1.407-4.7c-0.938-1.018-2.305-1.526-4.102-1.526c-1.078,0-2.026,0.23-2.844,0.688
		c-0.819,0.459-1.518,1.078-2.096,1.856c-0.579,0.778-1.018,1.697-1.317,2.754c-0.299,1.059-0.449,2.186-0.449,3.383v14.37h-7.844
		V25.139h7.365V28.971z"/>
	<path fill="#FFFFFF" d="M134.297,31.845h-5.149v-6.706h5.149v-8.98h7.843v8.98h7.185v6.706h-7.185v11.724
		c0,0.699,0.069,1.348,0.209,1.944c0.14,0.597,0.409,1.1,0.809,1.512c0.559,0.658,1.356,0.986,2.395,0.986
		c0.678,0,1.217-0.069,1.617-0.209c0.398-0.14,0.778-0.329,1.137-0.569l2.215,6.886c-0.918,0.438-1.906,0.769-2.963,0.988
		c-1.058,0.219-2.226,0.329-3.503,0.329c-1.477,0-2.805-0.234-3.981-0.702c-1.178-0.469-2.166-1.111-2.964-1.926
		c-1.877-1.834-2.814-4.441-2.814-7.823V31.845z"/>
	<path fill="#FFFFFF" d="M182.615,47.412c-1.357,2.396-3.184,4.332-5.479,5.808c-2.296,1.477-5.1,2.216-8.413,2.216
		c-2.236,0-4.301-0.39-6.197-1.168c-1.896-0.778-3.543-1.865-4.939-3.263c-1.398-1.396-2.485-3.043-3.263-4.939
		c-0.778-1.896-1.168-3.982-1.168-6.257c0-2.115,0.379-4.121,1.138-6.018c0.758-1.896,1.816-3.553,3.173-4.97
		c1.357-1.416,2.964-2.545,4.82-3.383c1.856-0.838,3.901-1.258,6.137-1.258c2.355,0,4.451,0.39,6.287,1.168
		c1.835,0.778,3.373,1.856,4.61,3.233c1.237,1.377,2.175,3.004,2.814,4.88c0.638,1.876,0.958,3.912,0.958,6.106
		c0,0.28,0,0.52,0,0.719c-0.04,0.239-0.06,0.46-0.06,0.659c-0.04,0.2-0.06,0.419-0.06,0.658H160.88
		c0.159,1.197,0.488,2.226,0.988,3.084c0.499,0.858,1.117,1.577,1.856,2.155c0.738,0.579,1.547,0.998,2.425,1.257
		c0.877,0.261,1.775,0.39,2.694,0.39c1.796,0,3.283-0.409,4.46-1.228c1.177-0.817,2.105-1.846,2.784-3.084L182.615,47.412z
		 M175.49,36.036c-0.04-0.519-0.209-1.098-0.509-1.736c-0.3-0.638-0.739-1.236-1.317-1.796c-0.579-0.559-1.298-1.019-2.156-1.378
		c-0.858-0.358-1.886-0.538-3.083-0.538c-1.676,0-3.153,0.479-4.431,1.437c-1.278,0.958-2.176,2.296-2.694,4.012H175.49z"/>
	<path fill="#FFFFFF" d="M188.123,25.139h7.365v4.071h0.479c0.359-0.718,0.838-1.377,1.437-1.976
		c0.599-0.599,1.267-1.12,2.005-1.565c0.738-0.444,1.536-0.803,2.395-1.077c0.858-0.273,1.707-0.411,2.545-0.411
		c1.038,0,1.925,0.111,2.665,0.333c0.738,0.222,1.367,0.51,1.886,0.865l-2.096,7.005c-0.479-0.239-1.008-0.429-1.586-0.568
		c-0.579-0.14-1.288-0.21-2.125-0.21c-1.078,0-2.057,0.211-2.934,0.633c-0.878,0.421-1.627,1.013-2.245,1.775
		c-0.62,0.763-1.099,1.655-1.437,2.679c-0.34,1.023-0.509,2.137-0.509,3.34v14.445h-7.844V25.139z"/>
	<path fill="#FFFFFF" d="M209.977,25.139h8.921l7.305,18.682h0.419l7.364-18.682h8.862l-12.634,29.339h-7.724L209.977,25.139z"/>
	<path fill="#FFFFFF" d="M250.811,21.188c-0.679,0-1.327-0.129-1.946-0.39c-0.619-0.259-1.158-0.618-1.617-1.077
		c-0.459-0.459-0.818-0.988-1.078-1.587c-0.26-0.599-0.389-1.258-0.389-1.976c0-0.719,0.129-1.378,0.389-1.977
		c0.259-0.599,0.619-1.127,1.078-1.586c0.458-0.459,0.998-0.818,1.617-1.078c0.619-0.259,1.267-0.39,1.946-0.39
		c1.397,0,2.594,0.489,3.593,1.468c0.997,0.979,1.497,2.165,1.497,3.563s-0.5,2.585-1.497,3.563
		C253.405,20.699,252.208,21.188,250.811,21.188z M246.919,54.478V25.139h7.844v29.339H246.919z"/>
	<path fill="#FFFFFF" d="M289.49,47.412c-1.357,2.396-3.184,4.332-5.479,5.808c-2.296,1.477-5.1,2.216-8.413,2.216
		c-2.236,0-4.301-0.39-6.197-1.168c-1.896-0.778-3.543-1.865-4.939-3.263c-1.398-1.396-2.485-3.043-3.263-4.939
		c-0.778-1.896-1.168-3.982-1.168-6.257c0-2.115,0.379-4.121,1.138-6.018c0.758-1.896,1.816-3.553,3.173-4.97
		c1.357-1.416,2.964-2.545,4.82-3.383c1.856-0.838,3.901-1.258,6.137-1.258c2.355,0,4.451,0.39,6.287,1.168
		c1.835,0.778,3.373,1.856,4.61,3.233c1.237,1.377,2.175,3.004,2.814,4.88c0.638,1.876,0.958,3.912,0.958,6.106
		c0,0.28,0,0.52,0,0.719c-0.039,0.239-0.06,0.46-0.06,0.659c-0.04,0.2-0.06,0.419-0.06,0.658h-22.094
		c0.159,1.197,0.488,2.226,0.988,3.084c0.499,0.858,1.117,1.577,1.856,2.155c0.738,0.579,1.547,0.998,2.425,1.257
		c0.877,0.261,1.775,0.39,2.694,0.39c1.796,0,3.283-0.409,4.46-1.228c1.177-0.817,2.105-1.846,2.784-3.084L289.49,47.412z
		 M282.365,36.036c-0.04-0.519-0.209-1.098-0.509-1.736c-0.3-0.638-0.739-1.236-1.317-1.796c-0.579-0.559-1.298-1.019-2.156-1.378
		c-0.858-0.358-1.886-0.538-3.083-0.538c-1.676,0-3.153,0.479-4.431,1.437c-1.278,0.958-2.176,2.296-2.694,4.012H282.365z"/>
	<path fill="#FFFFFF" d="M291.345,25.139h8.802l4.85,18.382h0.419l5.809-18.382h8.083l5.867,18.382h0.419l4.79-18.382h8.683
		l-9.4,29.339h-8.442l-5.868-18.501h-0.419l-5.868,18.501h-8.322L291.345,25.139z"/>
</g>
<g>
	<path fill="#F3C95F" d="M355.896,11.607h9.221l16.105,42.87h-8.921l-3.532-10.238h-16.525l-3.533,10.238h-8.921L355.896,11.607z
		 M366.134,36.814l-3.832-10.718l-1.557-5.209h-0.479l-1.557,5.209l-3.832,10.718H366.134z"/>
	<path fill="#F3C95F" d="M386.25,54.478v-42.87h15.089c2.036,0,3.941,0.329,5.718,0.988c1.775,0.658,3.323,1.586,4.641,2.784
		c1.317,1.197,2.354,2.625,3.113,4.28c0.758,1.657,1.138,3.483,1.138,5.479c0,2.036-0.38,3.883-1.138,5.539
		c-0.759,1.656-1.796,3.083-3.113,4.28c-1.317,1.198-2.865,2.126-4.641,2.784c-1.776,0.659-3.682,0.988-5.718,0.988h-7.005v15.747
		H386.25z M401.459,31.066c2.115,0,3.712-0.599,4.79-1.796c1.077-1.197,1.616-2.575,1.616-4.132c0-0.758-0.13-1.496-0.39-2.215
		s-0.658-1.348-1.197-1.887c-0.539-0.538-1.208-0.967-2.006-1.287c-0.799-0.318-1.736-0.479-2.813-0.479h-7.125v11.795H401.459z"/>
	<path fill="#F3C95F" d="M421.697,54.478v-42.87h15.089c2.036,0,3.941,0.329,5.718,0.988c1.775,0.658,3.323,1.586,4.641,2.784
		c1.317,1.197,2.354,2.625,3.113,4.28c0.758,1.657,1.138,3.483,1.138,5.479c0,2.036-0.38,3.883-1.138,5.539
		c-0.759,1.656-1.796,3.083-3.113,4.28c-1.317,1.198-2.865,2.126-4.641,2.784c-1.776,0.659-3.682,0.988-5.718,0.988h-7.005v15.747
		H421.697z M436.906,31.066c2.115,0,3.712-0.599,4.79-1.796c1.077-1.197,1.616-2.575,1.616-4.132c0-0.758-0.13-1.496-0.39-2.215
		s-0.658-1.348-1.197-1.887c-0.539-0.538-1.208-0.967-2.006-1.287c-0.799-0.318-1.736-0.479-2.813-0.479h-7.125v11.795H436.906z"/>
</g>
</svg>
