<?xml version="1.0" encoding="utf-8"?>
<!-- Generator: Adobe Illustrator 16.0.2, SVG Export Plug-In . SVG Version: 6.00 Build 0)  -->
<!DOCTYPE svg PUBLIC "-//W3C//DTD SVG 1.1//EN" "http://www.w3.org/Graphics/SVG/1.1/DTD/svg11.dtd">
<svg version="1.1" id="Layer_1" xmlns="http://www.w3.org/2000/svg" xmlns:xlink="http://www.w3.org/1999/xlink" x="0px" y="0px"
	 width="5111.011px" height="743.896px" viewBox="0 0 5111.011 743.896" enable-background="new 0 0 5111.011 743.896"
	 xml:space="preserve">
<polygon fill="#F4EEE2" points="390.809,644.046 171.135,644.046 377.459,0 597.133,0 "/>
<polygon fill="#1D9051" points="835.454,743.896 615.78,743.896 377.467,0 597.142,0 "/>
<polygon fill="#1D9051" points="390.811,644.046 171.137,644.046 0,109.837 219.674,109.837 "/>
<g>
	<path fill="#199453" d="M911.638,157.166h91.8v486.88h-91.8V157.166z"/>
	<path fill="#199453" d="M1174.113,354.366h5.44c10.423-16.766,24.479-30.026,42.16-39.78c17.68-9.743,37.846-14.62,60.52-14.62
		c20.847,0,39.206,3.4,55.08,10.2c15.863,6.8,28.9,16.437,39.1,28.9c10.2,12.474,17.903,27.434,23.12,44.88
		c5.207,17.457,7.82,36.836,7.82,58.14v201.96h-89.08v-191.08c0-24.023-5.334-41.82-15.979-53.38
		c-10.657-11.56-26.181-17.34-46.58-17.34c-12.24,0-23.014,2.614-32.301,7.82c-9.297,5.217-17.233,12.24-23.8,21.08
		c-6.576,8.84-11.56,19.273-14.96,31.28c-3.399,12.017-5.1,24.82-5.1,38.42v163.2h-89.08v-333.2h83.64V354.366z"/>
	<path fill="#199453" d="M1500.509,387.006h-58.479v-76.16h58.479v-102h89.08v102h81.601v76.16h-81.601v133.142
		c0,7.947,0.786,15.311,2.38,22.079c1.583,6.778,4.644,12.495,9.181,17.17c6.343,7.479,15.406,11.21,27.199,11.21
		c7.703,0,13.823-0.787,18.36-2.381c4.526-1.583,8.84-3.74,12.92-6.459l25.16,78.199c-10.434,4.983-21.654,8.723-33.66,11.221
		c-12.017,2.486-25.276,3.739-39.78,3.739c-16.776,0-31.854-2.667-45.22-7.979c-13.377-5.322-24.597-12.611-33.66-21.866
		c-21.313-20.825-31.96-50.437-31.96-88.847V387.006z"/>
	<path fill="#199453" d="M2048.586,563.806c-15.416,27.2-36.156,49.193-62.22,65.961c-26.073,16.766-57.917,25.159-95.54,25.159
		c-25.394,0-48.854-4.42-70.38-13.26c-21.537-8.841-40.237-21.187-56.1-37.06c-15.874-15.863-28.221-34.563-37.061-56.101
		c-8.84-21.526-13.26-45.22-13.26-71.06c0-24.023,4.303-46.804,12.92-68.34c8.606-21.527,20.623-40.344,36.04-56.44
		c15.406-16.086,33.66-28.9,54.74-38.42s44.306-14.28,69.7-14.28c26.743,0,50.543,4.42,71.399,13.26
		c20.847,8.84,38.304,21.08,52.36,36.72c14.046,15.64,24.703,34.117,31.96,55.42c7.246,21.314,10.88,44.434,10.88,69.36
		c0,3.178,0,5.896,0,8.16c-0.457,2.721-0.68,5.217-0.68,7.48c-0.457,2.273-0.681,4.76-0.681,7.479h-250.92
		c1.807,13.601,5.547,25.276,11.221,35.021c5.663,9.754,12.686,17.914,21.079,24.479c8.384,6.577,17.563,11.337,27.54,14.28
		c9.967,2.953,20.167,4.42,30.601,4.42c20.399,0,37.283-4.643,50.66-13.939c13.366-9.287,23.906-20.964,31.62-35.021
		L2048.586,563.806z M1967.667,434.606c-0.457-5.887-2.38-12.464-5.779-19.721c-3.4-7.246-8.395-14.046-14.96-20.4
		c-6.577-6.343-14.737-11.56-24.48-15.64c-9.754-4.08-21.42-6.12-35.02-6.12c-19.04,0-35.817,5.44-50.32,16.32
		c-14.514,10.88-24.714,26.074-30.601,45.561H1967.667z"/>
	<path fill="#199453" d="M2111.147,310.846h83.64v46.24h5.44c4.08-8.16,9.52-15.64,16.32-22.44c6.8-6.8,14.386-12.718,22.779-17.776
		c8.384-5.047,17.446-9.127,27.2-12.24c9.743-3.103,19.38-4.665,28.9-4.665c11.783,0,21.866,1.265,30.26,3.783
		c8.383,2.518,15.523,5.791,21.42,9.817l-23.8,79.56c-5.44-2.72-11.454-4.866-18.021-6.46c-6.576-1.583-14.62-2.38-24.14-2.38
		c-12.24,0-23.354,2.401-33.32,7.182c-9.977,4.781-18.477,11.507-25.5,20.167c-7.033,8.659-12.474,18.796-16.319,30.419
		c-3.857,11.624-5.78,24.268-5.78,37.932v164.061h-89.08V310.846z"/>
	<path fill="#199453" d="M2359.341,310.846h101.32l82.96,212.16h4.76l83.641-212.16h100.64l-143.48,333.2h-87.72L2359.341,310.846z"
		/>
	<path fill="#199453" d="M2823.095,265.966c-7.714,0-15.076-1.466-22.1-4.42c-7.034-2.943-13.154-7.023-18.36-12.24
		c-5.217-5.206-9.297-11.22-12.24-18.02c-2.953-6.8-4.42-14.28-4.42-22.44c0-8.16,1.467-15.64,4.42-22.44
		c2.943-6.8,7.023-12.803,12.24-18.02c5.206-5.206,11.326-9.286,18.36-12.24c7.023-2.943,14.386-4.42,22.1-4.42
		c15.863,0,29.464,5.557,40.8,16.66c11.327,11.114,17,24.597,17,40.46c0,15.874-5.673,29.357-17,40.46
		C2852.559,260.419,2838.958,265.966,2823.095,265.966z M2778.895,644.046v-333.2h89.08v333.2H2778.895z"/>
	<path fill="#199453" d="M3261.694,563.806c-15.416,27.2-36.156,49.193-62.22,65.961c-26.073,16.766-57.917,25.159-95.54,25.159
		c-25.394,0-48.854-4.42-70.38-13.26c-21.537-8.841-40.237-21.187-56.1-37.06c-15.874-15.863-28.221-34.563-37.061-56.101
		c-8.84-21.526-13.26-45.22-13.26-71.06c0-24.023,4.303-46.804,12.92-68.34c8.606-21.527,20.623-40.344,36.04-56.44
		c15.406-16.086,33.66-28.9,54.74-38.42s44.306-14.28,69.7-14.28c26.743,0,50.543,4.42,71.399,13.26
		c20.847,8.84,38.304,21.08,52.36,36.72c14.046,15.64,24.703,34.117,31.96,55.42c7.246,21.314,10.88,44.434,10.88,69.36
		c0,3.178,0,5.896,0,8.16c-0.457,2.721-0.68,5.217-0.68,7.48c-0.457,2.273-0.681,4.76-0.681,7.479h-250.92
		c1.807,13.601,5.547,25.276,11.221,35.021c5.663,9.754,12.686,17.914,21.079,24.479c8.384,6.577,17.563,11.337,27.54,14.28
		c9.967,2.953,20.167,4.42,30.601,4.42c20.399,0,37.283-4.643,50.66-13.939c13.366-9.287,23.906-20.964,31.62-35.021
		L3261.694,563.806z M3180.774,434.606c-0.457-5.887-2.38-12.464-5.779-19.721c-3.4-7.246-8.395-14.046-14.96-20.4
		c-6.577-6.343-14.737-11.56-24.48-15.64c-9.754-4.08-21.42-6.12-35.02-6.12c-19.04,0-35.817,5.44-50.32,16.32
		c-14.514,10.88-24.714,26.074-30.601,45.561H3180.774z"/>
	<path fill="#199453" d="M3282.098,310.846h99.96l55.08,208.761h4.76l65.961-208.761h91.8l66.64,208.761h4.76l54.4-208.761h98.6
		l-106.76,333.2h-95.88l-66.64-210.12h-4.761l-66.64,210.12h-94.52L3282.098,310.846z"/>
	<path fill="#F6C95F" d="M4017.853,157.166h104.72l182.92,486.88h-101.319l-40.12-116.279h-187.681l-40.119,116.279h-101.32
		L4017.853,157.166z M4134.133,443.446l-43.521-121.72l-17.68-59.16h-5.44l-17.68,59.16l-43.521,121.72H4134.133z"/>
	<path fill="#F6C95F" d="M4362.605,644.046v-486.88h171.36c23.12,0,44.763,3.74,64.939,11.22c20.166,7.48,37.74,18.02,52.7,31.62
		s26.743,29.814,35.36,48.62c8.605,18.817,12.92,39.557,12.92,62.22c0,23.12-4.314,44.094-12.92,62.9
		c-8.617,18.817-20.4,35.02-35.36,48.62c-14.96,13.6-32.534,24.14-52.7,31.619c-20.177,7.48-41.819,11.221-64.939,11.221h-79.561
		v178.84H4362.605z M4535.325,378.166c24.023,0,42.16-6.8,54.4-20.4c12.24-13.6,18.36-29.24,18.36-46.92
		c0-8.606-1.478-17-4.421-25.16c-2.953-8.16-7.479-15.3-13.6-21.42c-6.12-6.12-13.717-10.986-22.78-14.62
		c-9.073-3.623-19.72-5.44-31.96-5.44h-80.92v133.96H4535.325z"/>
	<path fill="#F6C95F" d="M4765.162,644.046v-486.88h171.36c23.12,0,44.763,3.74,64.939,11.22c20.166,7.48,37.74,18.02,52.7,31.62
		s26.743,29.814,35.36,48.62c8.605,18.817,12.92,39.557,12.92,62.22c0,23.12-4.314,44.094-12.92,62.9
		c-8.617,18.817-20.4,35.02-35.36,48.62c-14.96,13.6-32.534,24.14-52.7,31.619c-20.177,7.48-41.819,11.221-64.939,11.221h-79.561
		v178.84H4765.162z M4937.881,378.166c24.023,0,42.16-6.8,54.4-20.4c12.24-13.6,18.36-29.24,18.36-46.92
		c0-8.606-1.478-17-4.421-25.16c-2.953-8.16-7.479-15.3-13.6-21.42c-6.12-6.12-13.717-10.986-22.78-14.62
		c-9.073-3.623-19.72-5.44-31.96-5.44h-80.92v133.96H4937.881z"/>
</g>
</svg>
